<svg width="38" height="40" viewBox="0 0 38 40" fill="none" xmlns="http://www.w3.org/2000/svg">
<path fill-rule="evenodd" clip-rule="evenodd" d="M25.6565 16.8442H32.7767H37.9698V22.0373V29.1576L32.7767 34.2183V22.0373H20.5958L25.6565 16.8442Z" fill="#54D265"/>
<path d="M34.0419 5.78153L29.3784 11.004L28.6576 10.3715C26.2744 8.22361 23.1997 7.03199 19.9926 7.03199C12.843 7.03199 7.01728 12.8577 7.01728 20.0074C7.01728 27.1718 12.843 32.9827 19.9926 32.9827C21.2578 32.9827 22.4936 32.8062 23.6852 32.4531L24.9356 32.1V39.3821L24.1854 39.5734C22.7731 39.8529 21.3902 40 20.0074 40C8.97389 40 0 31.0261 0 19.9926C0 8.95917 8.97389 0 20.0074 0C24.9356 0 29.6727 1.80949 33.3358 5.0901L34.0419 5.78153Z" fill="#2D2D2D"/>
</svg>
